<svg xmlns="http://www.w3.org/2000/svg" viewBox="0 0 31.85 46.13"><path d="M15.81,24.59a8.53,8.53,0,1,1,8.53-8.53h0A8.53,8.53,0,0,1,15.81,24.59Zm0-15.85a7.33,7.33,0,1,0,7.33,7.33h0A7.34,7.34,0,0,0,15.81,8.74Z" transform="translate(0.01 0.4)" style="fill:#315897"/><path d="M15.83,40.91l-.39-.33C14.81,40,0,27.2,0,15.84A15.84,15.84,0,0,1,31.67,15c0,.27,0,.53,0,.8,0,12-14.82,24.24-15.45,24.75Zm0-39.71A14.66,14.66,0,0,0,1.2,15.84c0,9.83,12.3,21.38,14.65,23.49,2.36-2,14.62-13.09,14.62-23.49A14.65,14.65,0,0,0,15.84,1.2Z" transform="translate(0.01 0.4)" style="fill:#315897"/><path d="M16.34,45.73C8.64,45.73.85,44.26.85,41.44c0-2.27,4.84-3.33,7.73-3.76l.18,1.19c-4.92.73-6.71,1.94-6.71,2.57,0,1.26,5.57,3.09,14.29,3.09s14.3-1.83,14.3-3.09c0-.63-1.92-1.9-7.07-2.63l.17-1.19c3,.43,8.1,1.49,8.1,3.82C31.84,44.26,24.05,45.73,16.34,45.73Z" transform="translate(0.01 0.4)" style="fill:#77abdc"/><path d="M16.27,43.71c-1,0-9.88-.07-9.88-2.47,0-.63.44-1.53,4.29-2.1l.17,1.19a8.13,8.13,0,0,0-3.2.91c.57.47,3.46,1.26,8.62,1.26s8.05-.79,8.61-1.26a8.6,8.6,0,0,0-3.51-1l.16-1.2c4.14.56,4.61,1.5,4.61,2.15C26.14,43.64,17.28,43.71,16.27,43.71Z" transform="translate(0.01 0.4)" style="fill:#77abdc"/></svg>